<?xml version="1.0" encoding="UTF-8" standalone="no"?><!DOCTYPE svg PUBLIC "-//W3C//DTD SVG 1.1//EN" "http://www.w3.org/Graphics/SVG/1.1/DTD/svg11.dtd"><svg width="100%" height="100%" viewBox="0 0 4961 3508" version="1.1" xmlns="http://www.w3.org/2000/svg" xmlns:xlink="http://www.w3.org/1999/xlink" xml:space="preserve" xmlns:serif="http://www.serif.com/" style="fill-rule:evenodd;clip-rule:evenodd;stroke-linecap:round;stroke-linejoin:round;stroke-miterlimit:1.5;"><g><g><g><path d="M1245.345,1941.05c-68.589,-58.769 -112.08,-146.008 -112.08,-243.325c0,-97.317 43.491,-184.556 112.08,-243.325l0,486.65Z"/><path d="M1245.345,1454.399l0,-1.253l0.646,0.701l-0.646,0.552Zm1.839,488.215l-1.839,2.02l-0,-3.584c0.611,0.524 1.224,1.045 1.839,1.564Z" style="fill:#fff;"/></g><g id="uliss"><path d="M1942.419,1534.54l0,277.113l238.385,0l0,-277.113l62.416,0l0,249.289c0,30.08 -5.577,50.447 -16.732,61.1c-11.155,10.653 -32.273,15.98 -63.356,15.98l-202.289,0c-31.083,0 -52.202,-5.389 -63.356,-16.168c-11.155,-10.779 -16.732,-31.083 -16.732,-60.912l0,-249.289l61.664,0Z" style="fill-rule:nonzero;"/><path d="M2394.373,1860.909l0,-326.37l61.664,0l0,277.113l253.801,0l0,49.256l-315.465,0Z" style="fill-rule:nonzero;"/><rect x="2804.967" y="1535.292" width="61.288" height="325.618" style="fill-rule:nonzero;"/></g><rect x="3283.467" y="1583.044" width="20.455" height="0.314"/></g><path d="M1654.462,1947.184c-54.958,44.322 -124.838,70.868 -200.869,70.868c-78.61,0 -150.644,-28.378 -206.409,-75.439l166.017,-182.296l-24.667,-24.913l-106.746,113.097l0,-303.194l346.355,376.184l0.536,-0.254l25.783,25.947Z"/><path d="M1688.786,1480.342c52.832,57.127 85.135,133.512 85.135,217.382c0,88.363 -35.856,168.417 -93.799,226.395l-18.423,-18.54l0.142,-0.067l-415.851,-451.664c55.928,-47.666 128.43,-76.451 207.602,-76.451c80.884,0 154.807,30.044 211.208,79.571l-2.96,3.146l-0,-0.36l-178.288,181.211l24.225,24.467l147.768,-150.191l0.214,0.205l33.026,-35.104Z"/><path d="M3082.491,1811.653l225.942,0l0,-91.744l-210.185,0c-30.832,0 -51.763,-5.327 -62.792,-15.98c-11.029,-10.653 -16.544,-31.02 -16.544,-61.1l0,-30.832c0,-29.829 5.515,-50.196 16.544,-61.1c11.029,-10.904 31.96,-16.356 62.792,-16.356l181.609,0c1.218,0 2.422,0.008 3.61,0.025l0,-0.025l74.787,0l0,48.818l-54.332,0l0,-0.314l-228.985,0l0,84.6l209.433,0c30.581,0 51.45,5.327 62.604,15.98c11.155,10.653 16.732,31.02 16.732,61.1l0,39.104c0,30.08 -5.452,50.447 -16.356,61.1c-10.904,10.653 -31.897,15.98 -62.98,15.98l-198.529,0c-1.129,0 -2.246,-0.007 -3.349,-0.021l0,0.021l-74.787,0l0,-48.818l0.139,0l-0.042,-0.247l74.69,0l0,-0.19Z"/><path d="M3571.32,1811.653l227.796,0l0,-91.744l-210.185,0c-30.832,0 -51.763,-5.327 -62.792,-15.98c-11.029,-10.653 -16.544,-31.02 -16.544,-61.1l0,-30.832c0,-29.829 5.515,-50.196 16.544,-61.1c11.029,-10.904 31.96,-16.356 62.792,-16.356l181.609,0c1.768,0 3.504,0.018 5.209,0.054l0,-0.054l74.787,0l0,48.271l-1.7,0l0.103,0.606l-54.335,0l0,-0.372l-228.985,0l0,84.6l209.433,0c30.581,0 51.45,5.327 62.604,15.98c11.155,10.653 16.732,31.02 16.732,61.1l0,39.104c0,30.08 -5.452,50.447 -16.356,61.1c-10.904,10.653 -31.897,15.98 -62.98,15.98l-198.529,0c-1.302,0 -2.587,-0.009 -3.854,-0.028l-0,0.144l-74.787,0l0,-48.818l0.663,0l-0.042,-0.247l72.817,0l0,-0.307Z"/><path d="M1628.398,1920.9l26.833,26.917" style="fill:none;stroke:#fff;stroke-width:1.25px;"/><path d="M1653.623,1898.215l26.833,26.917" style="fill:none;stroke:#fff;stroke-width:1.25px;"/></g></svg>